HIERARCHY
ROOT Hips
{
	OFFSET 0.000000 0.000000 0.000000
	CHANNELS 6 Xposition Yposition Zposition Zrotation Yrotation Xrotation 
	JOINT LHipJoint
	{
		OFFSET 0.000000 0.000000 0.000000
		CHANNELS 3 Zrotation Yrotation Xrotation
		JOINT LeftUpLeg
		{
			OFFSET 1.363060 -1.794630 0.839290
			CHANNELS 3 Zrotation Yrotation Xrotation
			JOINT LeftLeg
			{
				OFFSET 2.448110 -6.726130 0.000000
				CHANNELS 3 Zrotation Yrotation Xrotation
				JOINT LeftFoot
				{
					OFFSET 2.562200 -7.039590 0.000000
					CHANNELS 3 Zrotation Yrotation Xrotation
					JOINT LeftToeBase
					{
						OFFSET 0.157640 -0.433110 2.322550
						CHANNELS 3 Zrotation Yrotation Xrotation
						End Site
						{
							OFFSET 0.000000 0.000000 0.000000
						}
					}
				}
			}
		}
	}
	JOINT RHipJoint
	{
		OFFSET 0.000000 0.000000 0.000000
		CHANNELS 3 Zrotation Yrotation Xrotation
		JOINT RightUpLeg
		{
			OFFSET -1.305520 -1.794630 0.839290
			CHANNELS 3 Zrotation Yrotation Xrotation
			JOINT RightLeg
			{
				OFFSET -2.542530 -6.985550 0.000000
				CHANNELS 3 Zrotation Yrotation Xrotation
				JOINT RightFoot
				{
					OFFSET -2.568260 -7.056230 0.000000
					CHANNELS 3 Zrotation Yrotation Xrotation
					JOINT RightToeBase
					{
						OFFSET -0.164730 -0.452590 2.363150
						CHANNELS 3 Zrotation Yrotation Xrotation
						End Site
						{
							OFFSET 0.000000 0.000000 0.000000
						}
					}
				}
			}
		}
	}
	JOINT LowerBack
	{
		OFFSET 0.000000 0.000000 0.000000
		CHANNELS 3 Zrotation Yrotation Xrotation
		JOINT Spine
		{
			OFFSET 0.028270 2.035590 -0.193380
			CHANNELS 3 Zrotation Yrotation Xrotation
			JOINT Spine1
			{
				OFFSET 0.056720 2.048850 -0.042750
				CHANNELS 3 Zrotation Yrotation Xrotation
				JOINT Neck
				{
					OFFSET 0.000000 0.000000 0.000000
					CHANNELS 3 Zrotation Yrotation Xrotation
					JOINT Neck1
					{
						OFFSET -0.054170 1.746240 0.172020
						CHANNELS 3 Zrotation Yrotation Xrotation
						JOINT Head
						{
							OFFSET 0.104070 1.761360 -0.123970
							CHANNELS 3 Zrotation Yrotation Xrotation
							End Site
							{
								OFFSET 0.000000 0.000000 0.000000
							}
						}
					}
				}
				JOINT LeftShoulder
				{
					OFFSET 0.000000 0.000000 0.000000
					CHANNELS 3 Zrotation Yrotation Xrotation
					JOINT LeftArm
					{
						OFFSET 3.362410 1.200890 -0.311210
						CHANNELS 3 Zrotation Yrotation Xrotation
						JOINT LeftForeArm
						{
							OFFSET 4.983000 -0.000000 -0.000000
							CHANNELS 3 Zrotation Yrotation Xrotation
							JOINT LeftHand
							{
								OFFSET 3.483560 -0.000000 -0.000000
								CHANNELS 3 Zrotation Yrotation Xrotation
								JOINT LeftFingerBase
								{
									OFFSET 0.000000 0.000000 0.000000
									CHANNELS 3 Zrotation Yrotation Xrotation
									JOINT LeftHandIndex1
									{
										OFFSET 0.715260 -0.000000 -0.000000
										CHANNELS 3 Zrotation Yrotation Xrotation
										End Site
										{
											OFFSET 0.000000 0.000000 0.000000
										}
									}
								}
								JOINT LThumb
								{
									OFFSET 0.000000 0.000000 0.000000
									CHANNELS 3 Zrotation Yrotation Xrotation
									End Site
									{
										OFFSET 0.000000 0.000000 0.000000
									}
								}
							}
						}
					}
				}
				JOINT RightShoulder
				{
					OFFSET 0.000000 0.000000 0.000000
					CHANNELS 3 Zrotation Yrotation Xrotation
					JOINT RightArm
					{
						OFFSET -3.136600 1.374050 -0.404650
						CHANNELS 3 Zrotation Yrotation Xrotation
						JOINT RightForeArm
						{
							OFFSET -5.241900 -0.000000 -0.000000
							CHANNELS 3 Zrotation Yrotation Xrotation
							JOINT RightHand
							{
								OFFSET -3.444170 -0.000000 -0.000000
								CHANNELS 3 Zrotation Yrotation Xrotation
								JOINT RightFingerBase
								{
									OFFSET 0.000000 0.000000 0.000000
									CHANNELS 3 Zrotation Yrotation Xrotation
									JOINT RightHandIndex1
									{
										OFFSET -0.622530 -0.000000 -0.000000
										CHANNELS 3 Zrotation Yrotation Xrotation
										End Site
										{
											OFFSET 0.000000 0.000000 0.000000
										}
									}
								}
								JOINT RThumb
								{
									OFFSET 0.000000 0.000000 0.000000
									CHANNELS 3 Zrotation Yrotation Xrotation
									End Site
									{
										OFFSET 0.000000 0.000000 0.000000
									}
								}
							}
						}
					}
				}
			}
		}
	}
}
MOTION
Frames: 10
Frame Time: 0.008333
6.570313 15.750032 7.879502 0.264463 15.511380 -1.459665 -4.839585 -2.517325 1.843432 -32.106645 17.515401 -21.511588 9.736329 18.102661 61.677800 2.729142 -23.316343 25.752805 0.080300 -1.827700 -5.029700 3.764607 3.154980 -1.652844 18.394098 6.500354 -44.594118 -10.919177 -17.475917 62.085304 1.428359 -7.893039 -4.527321 -2.540500 -9.911200 28.689700 0.620545 -10.760957 11.883333 3.746188 -14.101319 -3.072105 16.209538 -6.852565 -5.404997 -8.447346 -3.237076 -9.098684 4.408812 -3.578501 14.568983 3.375500 -2.285400 10.094100 0.662274 2.487991 -1.139268 -128.269005 -34.872753 124.152145 35.120099 -44.365513 -16.008354 0.454392 -0.674901 9.468204 9.519825 15.290799 2.476800 -7.125000 0.000000 0.000000 -17.420600 45.335600 -0.148900 0.634532 -3.021117 -2.200762 82.002238 -20.905721 -13.541872 -18.829287 29.988111 -5.852975 0.949290 1.180903 -16.837093 -22.460028 17.854590 -7.227900 7.125000 0.000000 0.000000 2.727000 -11.770600 2.115800 
6.665844 15.814263 7.955050 -0.451219 15.798191 -1.103233 -4.764838 -2.509223 1.788566 -30.625281 17.247041 -22.918390 10.173010 18.295166 62.833856 2.741093 -22.456995 23.346866 0.252800 -3.235200 -8.934200 3.750652 3.143402 -1.605250 18.782431 6.411948 -44.644035 -10.795661 -17.408853 61.708738 1.424066 -7.891845 -4.869723 -2.394900 -9.644200 27.832200 1.527821 -10.418438 11.805663 3.791205 -13.520044 -3.243771 16.208103 -6.456892 -6.287818 -8.794353 -3.495130 -8.319135 4.435345 -3.899419 14.305475 3.454500 -2.473000 9.886700 0.691362 2.379494 -1.155878 -126.445234 -37.078411 128.351599 39.338596 -47.007670 -19.097976 0.477999 -0.633110 3.883478 11.032026 18.209561 3.432700 -7.125000 0.000000 0.000000 -17.097800 48.363700 -1.458300 0.675026 -2.903813 -2.196822 81.801361 -21.010594 -13.752731 -18.492455 29.502090 -5.628110 0.950212 1.196562 -17.907803 -22.455164 17.491722 -7.087400 7.125000 0.000000 0.000000 2.689200 -12.146300 2.065500 
6.745164 15.866973 8.039162 -0.862126 16.373192 -0.831395 -4.675504 -2.476800 1.740114 -29.139431 16.752622 -23.120924 10.694104 18.522655 64.210608 2.789617 -20.296423 21.364897 0.105100 -2.090800 -5.756800 3.720295 3.124790 -1.579836 18.945941 5.940990 -44.588308 -10.673217 -17.351754 61.332079 1.406187 -7.806796 -4.909020 -2.423100 -9.696800 28.000400 1.953800 -10.063961 11.427483 3.798732 -13.014210 -3.249549 16.060211 -6.193546 -6.366878 -8.953080 -3.836055 -7.898094 4.526430 -4.352203 13.867441 3.495200 -2.675100 9.629900 0.660957 2.370823 -1.148480 -126.167903 -36.687969 128.265699 40.003844 -47.389533 -19.628234 0.486274 -0.636417 3.135634 11.161904 18.387240 3.509200 -7.125000 0.000000 0.000000 -17.052800 48.563600 -1.540300 0.754976 -2.859027 -2.153947 81.680784 -20.313893 -14.181979 -17.825198 28.578527 -5.204505 0.968727 1.192557 -18.289324 -22.576635 16.976327 -6.927700 7.125000 0.000000 0.000000 2.556800 -12.659300 1.936300 
6.823566 15.934569 8.141014 -0.934898 17.398133 -0.882042 -4.573866 -2.449135 1.699517 -27.841941 16.223847 -22.776562 11.114060 18.688525 65.443915 2.656965 -22.894843 20.374474 0.119200 -2.225600 -6.129400 3.699903 3.114520 -1.545202 18.809195 4.719767 -44.108567 -10.523281 -17.298440 60.886849 1.360224 -7.602277 -5.046496 -2.434200 -9.717300 28.066100 2.006187 -9.778160 11.191340 3.732757 -12.633655 -3.174525 15.820178 -6.028169 -6.177525 -8.985913 -4.300461 -7.651482 4.519582 -4.989672 13.406681 3.445700 -2.952800 9.400500 0.599476 2.366029 -1.141492 -125.749420 -36.422605 128.334509 40.743181 -47.809808 -20.227525 0.495806 -0.640092 2.211858 11.056203 18.611560 3.515100 -7.125000 0.000000 0.000000 -17.245200 48.775700 -1.651000 0.860362 -2.827222 -2.080039 81.591606 -19.097033 -15.672605 -16.730063 27.092919 -4.567240 1.004354 1.106951 -17.482986 -22.086185 16.896797 -6.771000 7.125000 0.000000 0.000000 2.888800 -12.716400 2.184900 
6.893812 15.993600 8.210852 -0.983193 17.681010 -0.771141 -4.480761 -2.431140 1.626447 -26.759807 16.028746 -23.323489 11.625541 18.875777 66.730391 2.721410 -21.701718 17.580635 0.209300 -2.945600 -8.127200 3.697593 3.102036 -1.525434 18.678894 4.557737 -43.633664 -10.375402 -17.240336 60.432309 1.394074 -7.761998 -5.359210 -2.352300 -9.564300 27.576900 1.942547 -9.241821 11.187576 3.653920 -11.915432 -3.133590 15.745595 -5.663223 -6.267418 -9.216885 -4.785782 -7.378220 4.691884 -5.628699 13.088773 3.519000 -3.242000 9.277200 0.527033 2.348268 -1.137149 -124.994751 -36.067355 127.934768 41.602344 -48.293962 -20.920951 0.505606 -0.641128 1.416448 10.977993 18.836080 3.528500 -7.125000 0.000000 0.000000 -17.413700 48.987900 -1.761300 0.970948 -2.765692 -2.018093 81.422580 -18.025978 -17.483640 -15.674833 25.632414 -4.008112 1.020277 0.969985 -15.825887 -20.914739 17.096214 -6.507400 7.125000 0.000000 0.000000 3.724500 -12.528500 2.834000 
6.964976 16.057015 8.262849 -1.086488 17.513966 -0.632888 -4.396603 -2.415349 1.541049 -25.679785 16.097824 -24.189099 12.127154 19.049442 67.975797 2.784536 -19.932979 14.981371 0.308900 -3.573200 -9.879000 3.707642 3.087773 -1.521037 18.595531 5.006815 -43.043586 -10.204888 -17.169812 59.888953 1.484284 -8.144083 -5.474901 -2.274300 -9.415600 27.104100 1.878217 -8.607865 11.263202 3.575864 -11.058668 -3.065554 15.721328 -5.244942 -6.294239 -9.632736 -5.226239 -7.313267 5.202137 -6.169860 12.882459 3.796500 -3.473900 9.285500 0.440336 2.318249 -1.134720 -123.874020 -36.039707 127.512601 42.786745 -48.935863 -21.858920 0.515767 -0.633054 0.207995 11.300839 19.552734 3.769700 -7.125000 0.000000 0.000000 -17.411200 49.730500 -2.086900 1.068131 -2.655665 -1.949980 81.104931 -16.641719 -18.308005 -14.849044 24.345436 -3.562957 1.008100 0.955923 -15.609981 -20.579135 15.875938 -5.937200 7.125000 0.000000 0.000000 3.891300 -13.844200 2.853800 
7.066216 16.138782 8.345227 -0.737301 17.781345 -0.936834 -4.321009 -2.378464 1.496506 -24.952660 16.247135 -23.809826 12.538077 19.186253 68.945184 2.820055 -18.358674 12.216074 0.393700 -4.029000 -11.158400 3.726222 3.075841 -1.484040 18.025778 4.224166 -41.868202 -9.993418 -17.102577 59.251197 1.440514 -7.944198 -5.538548 -2.221200 -9.312300 26.777200 1.574382 -8.167525 11.453169 3.436297 -10.474425 -2.961724 15.516463 -4.978637 -6.221641 -10.036689 -5.647799 -7.062998 5.522223 -6.705334 12.695842 3.993400 -3.723700 9.240300 0.340631 2.293180 -1.119338 -122.633995 -36.102447 127.144060 44.050830 -49.588461 -22.865430 0.525594 -0.620991 -1.366509 11.653896 20.534880 4.079700 -7.125000 0.000000 0.000000 -17.501900 50.735000 -2.540400 1.129261 -2.569523 -1.879684 80.417672 -15.485050 -18.539186 -13.871911 22.865326 -3.089753 1.004976 0.890495 -15.354454 -19.730482 15.293067 -5.492500 7.125000 0.000000 0.000000 4.457400 -14.479400 3.211300 
7.148901 16.205766 8.403239 -0.611183 17.774628 -1.128901 -4.254201 -2.341054 1.445761 -23.977692 16.334510 -23.847614 12.957453 19.323154 69.979239 2.797120 -16.604763 10.084355 0.357300 -3.839900 -10.626800 3.746127 3.063454 -1.449223 17.758752 3.996981 -40.845276 -9.756050 -17.011271 58.527826 1.430536 -7.914172 -5.830749 -2.294400 -9.454100 27.226200 1.310101 -7.644946 11.811881 3.361817 -9.764639 -2.905463 15.521931 -4.617535 -6.413058 -10.278191 -6.034733 -6.647602 5.546407 -7.215284 12.441538 4.004600 -3.975800 9.110500 0.296122 2.270817 -1.078854 -121.403885 -35.707573 125.759116 44.549924 -49.863231 -23.257244 0.528229 -0.610903 -2.111820 11.845097 21.059468 4.250300 -7.125000 0.000000 0.000000 -17.552100 51.268400 -2.782800 1.148132 -2.528374 -1.874460 79.738134 -15.380767 -16.354484 -13.650144 22.517887 -3.033289 0.935364 0.923651 -16.714454 -18.410726 14.490603 -4.831300 7.125000 0.000000 0.000000 5.356600 -15.465600 3.750900 
7.212112 16.273158 8.434641 -1.052496 17.631131 -1.150035 -4.193156 -2.309784 1.370245 -22.388005 16.194740 -24.532697 13.372847 19.448112 71.033202 2.719511 -14.930927 8.623716 0.337900 -3.735600 -10.333900 3.766155 3.049014 -1.433668 18.061988 4.532500 -40.150660 -9.494094 -16.886012 57.685501 1.556166 -8.426791 -5.865405 -2.336400 -9.534300 27.481400 1.472839 -7.115332 12.149756 3.374400 -8.987800 -2.844974 15.630826 -4.236613 -6.568020 -10.548606 -6.356172 -6.474643 5.792261 -7.601023 12.054868 4.125600 -4.145900 8.988500 0.262726 2.231795 -1.038411 -120.036915 -35.594479 124.256723 44.989358 -50.108684 -23.590597 0.528500 -0.597641 -2.747072 12.194184 21.591119 4.487100 -7.125000 0.000000 0.000000 -17.456800 51.832600 -3.013200 1.193145 -2.453176 -1.862805 79.043348 -14.920032 -14.020635 -13.541832 22.317119 -3.034149 0.850142 0.941744 -17.699469 -17.012093 13.692763 -4.192300 7.125000 0.000000 0.000000 6.344100 -16.433900 4.316900 
7.289291 16.355026 8.490206 -1.179610 18.063156 -1.318130 -4.130710 -2.269482 1.338184 -21.084620 15.721501 -24.596406 13.675349 19.532599 71.769943 2.628553 -13.460864 7.100655 0.480000 -4.442800 -12.326000 3.798205 3.030824 -1.363812 17.949036 4.151943 -39.362103 -9.247122 -16.768076 56.883529 1.642342 -8.742629 -5.690341 -2.224400 -9.318500 26.796900 1.678761 -6.828777 12.485012 3.307646 -8.530301 -2.962319 15.413555 -3.920642 -7.431921 -11.106685 -6.578762 -5.123249 6.195507 -7.927847 11.710632 4.437500 -4.339300 8.647700 0.179863 2.214767 -0.997542 -118.128226 -34.357760 122.061764 45.380145 -50.322353 -23.908013 0.533219 -0.590828 -3.207560 12.867620 22.230159 4.881300 -7.125000 0.000000 0.000000 -17.112300 52.564300 -3.263000 1.197847 -2.360102 -1.851296 78.286690 -15.067726 -12.718939 -13.148161 21.751222 -2.907391 0.795562 0.877682 -17.270772 -15.575887 13.438084 -3.764300 7.125000 0.000000 0.000000 7.387500 -16.764300 4.984700 
